<?xml version="1.0" encoding="UTF-8" standalone="no"?>
<!-- Created with Inkscape (http://www.inkscape.org/) -->

<svg
   width="186.04022mm"
   height="55.986206mm"
   viewBox="0 0 186.04022 55.986206"
   version="1.1"
   id="svg5"
   inkscape:version="1.2.2 (b0a8486541, 2022-12-01)"
   sodipodi:docname="logo.svg"
   xml:space="preserve"
   inkscape:export-filename="netuno-logo.svg"
   inkscape:export-xdpi="96"
   inkscape:export-ydpi="96"
   xmlns:inkscape="http://www.inkscape.org/namespaces/inkscape"
   xmlns:sodipodi="http://sodipodi.sourceforge.net/DTD/sodipodi-0.dtd"
   xmlns="http://www.w3.org/2000/svg"
   xmlns:svg="http://www.w3.org/2000/svg"><sodipodi:namedview
     id="namedview7"
     pagecolor="#505050"
     bordercolor="#eeeeee"
     borderopacity="1"
     inkscape:showpageshadow="0"
     inkscape:pageopacity="0"
     inkscape:pagecheckerboard="0"
     inkscape:deskcolor="#505050"
     inkscape:document-units="mm"
     showgrid="false"
     inkscape:zoom="0.9852077"
     inkscape:cx="2925.2715"
     inkscape:cy="2037.1339"
     inkscape:window-width="1920"
     inkscape:window-height="1043"
     inkscape:window-x="1920"
     inkscape:window-y="0"
     inkscape:window-maximized="1"
     inkscape:current-layer="text7174-1-9-5-4"
     showguides="false" /><defs
     id="defs2" /><g
     inkscape:label="Camada 1"
     inkscape:groupmode="layer"
     id="layer1"
     transform="translate(-705.05085,-547.24477)"><g
       id="g2298-4-6-7"
       transform="translate(-53.818063,210.58072)"
       inkscape:export-filename="images/netuno-dark.svg"
       inkscape:export-xdpi="300"
       inkscape:export-ydpi="300"><g
         id="g1651-9-5-5-8"
         transform="matrix(0.46655576,0,0,0.46655576,434.11,274.82393)"><path
           id="circle3569-2-2-3-9-6"
           style="fill:#666666;fill-opacity:1;stroke-width:3.15313;stroke-linejoin:round;paint-order:markers fill stroke"
           d="m 744.07697,132.54606 a 48,48 0 0 0 -47.99965,47.99965 48,48 0 0 0 12.8204,32.65589 48,48 0 0 1 -0.8201,-8.65632 48,48 0 0 1 47.99965,-47.99966 48,48 0 0 1 35.22059,15.38821 48,48 0 0 0 -47.22089,-39.38777 z" /><path
           id="path3583-9-8-6-3-8"
           style="fill:#ffffff;fill-opacity:1;stroke-width:3.15313;stroke-linejoin:round;paint-order:markers fill stroke"
           d="m 756.07732,252.54493 a 48,48 0 0 0 47.99965,-47.99965 48,48 0 0 0 -12.8204,-32.65589 48,48 0 0 1 0.8201,8.65632 48,48 0 0 1 -47.99965,47.99966 48,48 0 0 1 -35.22059,-15.38821 48,48 0 0 0 47.22089,39.38777 z" /></g><g
         aria-label="Netuno"
         id="text7174-1-9-1-7-8"
         style="font-size:13.9526px;font-family:'Techna Sans';-inkscape-font-specification:'Techna Sans';fill:#ffffff;stroke-width:0.686639;stroke-linejoin:round;paint-order:markers fill stroke"
         inkscape:export-filename="netuno-logo.svg"
         inkscape:export-xdpi="96"
         inkscape:export-ydpi="96"
         transform="matrix(3.7795276,0,0,3.7795276,457.45761,-163.28005)"><g
           aria-label="NETUNO"
           id="text1491-7-0-4-4"
           style="font-size:8.96056px;stroke-width:0.661458"><path
             d="m 94.464412,143.23639 h 1.200715 v -4.67741 l 2.293904,4.67741 h 1.577058 v -6.16487 h -1.200715 v 4.4534 l -2.177416,-4.4534 h -1.693546 z"
             style="text-align:center;text-anchor:middle"
             id="path20932" /><path
             d="m 100.63824,143.23639 h 4.31003 l -0.2957,-1.09319 h -2.81361 v -1.53225 h 2.07885 l 0.27778,-1.08423 h -2.35663 v -1.36201 h 2.70609 l 0.28673,-1.09319 h -4.19354 z"
             style="text-align:center;text-anchor:middle"
             id="path20934" /><path
             d="m 110.08267,137.07152 h -4.81182 l -0.28674,1.09319 h 2.06989 v 5.07168 h 1.20072 v -5.07168 h 1.82795 z"
             style="text-align:center;text-anchor:middle"
             id="path20936" /><path
             d="m 111.85685,140.92456 v -3.85304 h -1.20071 v 4.00537 c 0,1.43369 0.82437,2.30287 2.37455,2.30287 1.55017,0 2.37455,-0.86918 2.37455,-2.30287 v -4.00537 h -1.20072 v 3.85304 c 0,0.91398 -0.3853,1.35305 -1.17383,1.35305 -0.78853,0 -1.17384,-0.43907 -1.17384,-1.35305 z"
             style="text-align:center;text-anchor:middle"
             id="path20938" /><path
             d="m 116.48947,143.23639 h 1.20072 v -4.67741 l 2.2939,4.67741 h 1.57706 v -6.16487 h -1.20072 v 4.4534 l -2.17741,-4.4534 h -1.69355 z"
             style="text-align:center;text-anchor:middle"
             id="path20940" /><path
             d="m 125.63821,138.01238 c 1.37992,0 2.10573,1.04839 2.10573,2.12366 0,1.10214 -0.72581,2.15949 -2.10573,2.15949 -1.37993,0 -2.10573,-1.05735 -2.10573,-2.15949 0,-1.07527 0.7258,-2.12366 2.10573,-2.12366 z m 0,-1.10215 c -2.17742,0 -3.33333,1.51434 -3.33333,3.22581 0,1.72938 1.15591,3.26164 3.33333,3.26164 2.17741,0 3.33333,-1.53226 3.33333,-3.26164 0,-1.71147 -1.15592,-3.22581 -3.33333,-3.22581 z"
             style="text-align:center;text-anchor:middle"
             id="path20942" /></g></g></g></g></svg>
